# xmcd
#
# Track frame offsets: 
#        150
#        14831
#        45913
#        60781
#        79881
#        97914
#        120284
#        141106
#        157774
#        176819
#        195804
#        212588
#        232916
#        247981
#        258831
#        269806
#        282288
#        299398
#        312756
#        334028
#
# Disc length: 4683 seconds
#
# Revision: 1
# Processed by: cddbd v1.5.2PL0 Copyright (c) Steve Scherf et al.
# Submitted via: ExactAudioCopyFreeDBPlugin 1.0
#
DISCID=07124914
DTITLE=Donovan - Breezes Of Patchouli [Disc 1]
DYEAR=2013
DGENRE=
TTITLE0=Sunshine Superman
TTITLE1=Legend Of A Girl Child Linda
TTITLE2=Three Kingfishers
TTITLE3=Ferris Wheel
TTITLE4=Bert's Blues
TTITLE5=Season Of The Witch
TTITLE6=The Trip
TTITLE7=Guinevere
TTITLE8=The Fat Angel
TTITLE9=Celeste
TTITLE10=Mellow Yellow
TTITLE11=Writer In The Sun
TTITLE12=Sand And Foam
TTITLE13=The Observation
TTITLE14=Bleak City Woman
TTITLE15=House Of Jansch
TTITLE16=Young Girl Blues
TTITLE17=Museum
TTITLE18=Hampstead Incident
TTITLE19=Sunny South Kensington
EXTD=
EXTT0=
EXTT1=
EXTT2=
EXTT3=
EXTT4=
EXTT5=
EXTT6=
EXTT7=
EXTT8=
EXTT9=
EXTT10=
EXTT11=
EXTT12=
EXTT13=
EXTT14=
EXTT15=
EXTT16=
EXTT17=
EXTT18=
EXTT19=
PLAYORDER=
